# xmcd
#
# Track frame offsets:
#	150
#	8953
#	20232
#	32822
#	44237
#	57083
#	77656
#	90294
#	102680
#	112159
#	122301
#	134988
#	149634
#	160116
#	170486
#	181379
#	192578
#	207933
#	218529
#	227978
#
# Disc length: 3189 seconds
#
# Revision: 2
# Processed by: cddbd v1.5.2PL0 Copyright (c) Steve Scherf et al.
# Submitted via: audiograbber 1.83.01
#
DISCID=2d0c7314
DTITLE=Compilation - Un air de guinguette - CD 3
DYEAR=2005
DGENRE=Dance
TTITLE0=Colette Renard - Ah! le petit vin blanc
TTITLE1=Mouloudji - La java de la Varenne
TTITLE2=Georgette Plana - C'est lui que mon coeur a choisi
TTITLE3=Jacques Ferchit - Sous le ciel de Paris
TTITLE4=Marcel Azzola - Valse à Marcel A.
TTITLE5=Roger Eggermont - Lexus tango
TTITLE6=Primo Corchia et son orchestre - Jalousie
TTITLE7=Aimable - La valse des as
TTITLE8=Cyril Olmeta - La java des lampions
TTITLE9=Vincent Cioti - Le bal à Momo
TTITLE10=Edouard Duleu - Reproches
TTITLE11=Diane May - Bolero des guinguettes
TTITLE12=Bernard Laroche - Chercher la femme
TTITLE13=Aimable - Mon amant de la Saint-Jean
TTITLE14=Ariane Lespar - Matin malin
TTITLE15=Serge Franklin - Belle Juliette
TTITLE16=Willy Hoffner et son orchestre - Noche de tango
TTITLE17=Nicolas Deflandre - Brazil Brazil
TTITLE18=Gus Viseur - Soir de dispute
TTITLE19=Jules Loudejac - Impression sauvage
EXTD=
EXTT0=
EXTT1=
EXTT2=
EXTT3=
EXTT4=
EXTT5=
EXTT6=
EXTT7=
EXTT8=
EXTT9=
EXTT10=
EXTT11=
EXTT12=
EXTT13=
EXTT14=
EXTT15=
EXTT16=
EXTT17=
EXTT18=
EXTT19=
PLAYORDER=
